<?xml version="1.0" encoding="utf-8"?>
<!-- Generator: Adobe Illustrator 16.0.0, SVG Export Plug-In . SVG Version: 6.00 Build 0)  -->
<!DOCTYPE svg PUBLIC "-//W3C//DTD SVG 1.1//EN" "http://www.w3.org/Graphics/SVG/1.1/DTD/svg11.dtd">
<svg version="1.1" id="Layer_1" xmlns="http://www.w3.org/2000/svg" xmlns:xlink="http://www.w3.org/1999/xlink" x="0px" y="0px"
	 width="612px" height="429.82px" viewBox="0 0 612 429.82" enable-background="new 0 0 612 429.82" xml:space="preserve">
<path fill="#FFFFFF" d="M412.363,423.823c-8.676,8.272-22.415,7.946-30.688-0.729c-7.938-8.324-8.004-21.394-0.15-29.798
	L537.892,236.93H21.903c-11.998,0.097-21.803-9.551-21.899-21.549c0-0.014,0-0.026,0-0.04c0.043-12.077,9.822-21.856,21.899-21.899
	h515.988L381.525,37.308c-8.34-8.588-8.34-22.25,0-30.838c8.36-8.516,22.041-8.642,30.557-0.28c0.095,0.093,0.188,0.186,0.281,0.28
	l193.384,193.442c8.333,8.47,8.333,22.058,0,30.527L412.363,423.823z"/>
</svg>
